<mxfile host="app.diagrams.net" modified="2023-08-03T11:47:30.650Z" agent="Mozilla/5.0 (Macintosh; Intel Mac OS X 10_15_7) AppleWebKit/537.36 (KHTML, like Gecko) Chrome/115.0.0.0 Safari/537.36" etag="ukNGmi_2Rc3UhE-fo4tW" version="21.6.6" type="github">
  <diagram name="第 1 页" id="Uo9V--DsQ74r6xnJqxNf">
    <mxGraphModel dx="1306" dy="830" grid="1" gridSize="10" guides="1" tooltips="1" connect="1" arrows="1" fold="1" page="1" pageScale="1" pageWidth="827" pageHeight="1169" math="0" shadow="0">
      <root>
        <mxCell id="0" />
        <mxCell id="1" parent="0" />
        <mxCell id="WoEe8UAZMMlgYrZcdHqt-5" value="Palmpay" style="rounded=0;whiteSpace=wrap;html=1;fontStyle=1;fontSize=18;verticalAlign=top;" vertex="1" parent="1">
          <mxGeometry x="40" y="10" width="360" height="370" as="geometry" />
        </mxCell>
        <mxCell id="WoEe8UAZMMlgYrZcdHqt-6" value="Partners" style="rounded=0;whiteSpace=wrap;html=1;fontStyle=1;fontSize=18;verticalAlign=top;" vertex="1" parent="1">
          <mxGeometry x="440" y="10" width="360" height="370" as="geometry" />
        </mxCell>
        <mxCell id="WoEe8UAZMMlgYrZcdHqt-7" value="Business System" style="rounded=0;whiteSpace=wrap;html=1;" vertex="1" parent="1">
          <mxGeometry x="160" y="80" width="120" height="60" as="geometry" />
        </mxCell>
        <mxCell id="WoEe8UAZMMlgYrZcdHqt-8" value="" style="rounded=0;whiteSpace=wrap;html=1;" vertex="1" parent="1">
          <mxGeometry x="160" y="190" width="120" height="60" as="geometry" />
        </mxCell>
        <mxCell id="WoEe8UAZMMlgYrZcdHqt-9" value="" style="rounded=0;whiteSpace=wrap;html=1;" vertex="1" parent="1">
          <mxGeometry x="40" y="440" width="760" height="480" as="geometry" />
        </mxCell>
      </root>
    </mxGraphModel>
  </diagram>
</mxfile>
